<?xml version="1.0" encoding="UTF-8" standalone="no"?>
<!-- Created with Inkscape (http://www.inkscape.org/) -->

<svg
   width="53.495785mm"
   height="66.315948mm"
   viewBox="0 0 53.495785 66.315948"
   version="1.1"
   id="svg5"
   xmlns:inkscape="http://www.inkscape.org/namespaces/inkscape"
   xmlns:sodipodi="http://sodipodi.sourceforge.net/DTD/sodipodi-0.dtd"
   xmlns="http://www.w3.org/2000/svg"
   xmlns:svg="http://www.w3.org/2000/svg">
  <sodipodi:namedview
     id="namedview7"
     pagecolor="#ffffff"
     bordercolor="#000000"
     borderopacity="0.25"
     inkscape:showpageshadow="2"
     inkscape:pageopacity="0.0"
     inkscape:pagecheckerboard="0"
     inkscape:deskcolor="#d1d1d1"
     inkscape:document-units="mm"
     showgrid="false" />
  <defs
     id="defs2" />
  <g
     inkscape:label="Слой 1"
     inkscape:groupmode="layer"
     id="layer1"
     transform="translate(-53.956243,-160.60484)">
    <rect
       style="fill:#86bcff;fill-opacity:1;stroke:none;stroke-width:7;stroke-linecap:round;stroke-linejoin:round;stroke-dashoffset:148.649;stroke-opacity:1;paint-order:fill markers stroke"
       id="rect30746"
       width="9.0298557"
       height="11.333964"
       x="62.572124"
       y="207.98355"
       rx="4.5149279"
       ry="3.6306949"
       transform="rotate(0.15289485)"
       inkscape:export-filename="lua_funny.svg"
       inkscape:export-xdpi="23.740189"
       inkscape:export-ydpi="23.740189" />
    <rect
       style="fill:#86bcff;fill-opacity:1;stroke:none;stroke-width:7;stroke-linecap:round;stroke-linejoin:round;stroke-dashoffset:148.649;stroke-opacity:1;paint-order:fill markers stroke"
       id="rect30742"
       width="9.0298557"
       height="11.333964"
       x="91.290359"
       y="207.90691"
       rx="4.5149279"
       ry="3.6306949"
       transform="rotate(0.15289485)" />
    <circle
       style="fill:#ffbc4b;fill-opacity:1;stroke:none;stroke-width:7;stroke-linecap:round;stroke-linejoin:round;stroke-dashoffset:148.649;stroke-opacity:1;paint-order:fill markers stroke"
       id="circle27904"
       cx="87.513977"
       cy="196.74582"
       r="15.20783" />
    <rect
       style="fill:#9dc9ff;fill-opacity:1;stroke:none;stroke-width:7;stroke-linecap:round;stroke-linejoin:round;stroke-dashoffset:148.649;stroke-opacity:1;paint-order:fill markers stroke"
       id="rect27906"
       width="27.727844"
       height="21.127018"
       x="68.049744"
       y="202.55394"
       rx="5.1257839"
       ry="5.0592251"
       transform="rotate(0.15289485)" />
    <rect
       style="fill:#78b4ff;fill-opacity:1;stroke:none;stroke-width:7;stroke-linecap:round;stroke-linejoin:round;stroke-dashoffset:148.649;stroke-opacity:1;paint-order:fill markers stroke"
       id="rect30748"
       width="9.0298557"
       height="11.333964"
       x="76.726227"
       y="215.37082"
       rx="4.5149279"
       ry="3.6306949"
       transform="rotate(0.15289485)" />
    <ellipse
       style="fill:#ffdc4b;fill-opacity:1;stroke:none;stroke-width:7;stroke-linecap:round;stroke-linejoin:round;stroke-dashoffset:148.649;stroke-opacity:1;paint-order:fill markers stroke"
       id="ellipse27908"
       cx="80.704132"
       cy="189.41028"
       rx="26.74789"
       ry="24.869276" />
    <circle
       style="fill:#ffad22;fill-opacity:1;stroke:none;stroke-width:1.87353;stroke-linecap:round;stroke-linejoin:round;stroke-dashoffset:148.649;stroke-opacity:1;paint-order:fill markers stroke"
       id="circle27910"
       cx="65.641533"
       cy="170.13211"
       r="4.0703301" />
    <circle
       style="fill:#ffb63e;fill-opacity:1;stroke:none;stroke-width:2.90294;stroke-linecap:round;stroke-linejoin:round;stroke-dashoffset:148.649;stroke-opacity:1;paint-order:fill markers stroke"
       id="circle27912"
       cx="74.050575"
       cy="166.91162"
       r="6.306776" />
    <circle
       style="fill:#ffbc4b;fill-opacity:1;stroke:none;stroke-width:7;stroke-linecap:round;stroke-linejoin:round;stroke-dashoffset:148.649;stroke-opacity:1;paint-order:fill markers stroke"
       id="circle27914"
       cx="87.513977"
       cy="196.74582"
       r="15.20783" />
    <path
       id="rect27916"
       style="fill:#ffffff;fill-opacity:1;stroke:none;stroke-width:3.64465;stroke-linecap:round;stroke-linejoin:round;stroke-dashoffset:148.649;stroke-opacity:1;paint-order:fill markers stroke"
       d="m 70.973514,181.80351 c -4.16248,0 -7.51324,4.32058 -7.51324,9.68778 0,2.94273 1.00732,5.57082 2.60346,7.34477 a 11.405873,9.0352402 0 0 1 6.49056,-1.6123 11.405873,9.0352402 0 0 1 4.10983,0.6072 c 1.13695,-1.69677 1.82314,-3.91106 1.82314,-6.33967 0,-5.3672 -3.35126,-9.68778 -7.51375,-9.68778 z" />
    <path
       id="rect27920"
       style="fill:#252525;fill-opacity:1;stroke:none;stroke-width:3.64465;stroke-linecap:round;stroke-linejoin:round;stroke-dashoffset:148.649;stroke-opacity:1;paint-order:fill markers stroke"
       d="m 73.592474,188.5571 c -2.71165,0 -4.89479,2.81478 -4.89479,6.31125 0,0.99184 0.17581,1.92865 0.48938,2.7621 a 11.405873,9.0352402 0 0 1 3.36723,-0.40669 11.405873,9.0352402 0 0 1 5.19245,0.99167 c 0.46929,-0.96914 0.74052,-2.11566 0.74052,-3.34708 0,-3.49647 -2.18314,-6.31125 -4.89479,-6.31125 z" />
    <circle
       style="fill:#ffbc4b;fill-opacity:1;stroke:none;stroke-width:3.6647;stroke-linecap:round;stroke-linejoin:round;stroke-dashoffset:148.649;stroke-opacity:1;paint-order:fill markers stroke"
       id="circle27924"
       cx="85.724823"
       cy="168.92442"
       r="7.9617457" />
    <path
       id="path28030"
       style="fill:#ffffff;fill-opacity:1;stroke:none;stroke-width:3.64465;stroke-linecap:round;stroke-linejoin:round;stroke-dashoffset:148.649;stroke-opacity:1;paint-order:fill markers stroke"
       d="m 90.654744,181.80351 c 4.16248,0 7.51324,4.32058 7.51324,9.68778 0,2.94273 -1.00732,5.57082 -2.60346,7.34477 a 11.405873,9.0352402 0 0 0 -6.49056,-1.6123 11.405873,9.0352402 0 0 0 -4.10983,0.6072 c -1.13695,-1.69677 -1.82314,-3.91106 -1.82314,-6.33967 0,-5.3672 3.35126,-9.68778 7.51375,-9.68778 z" />
    <path
       id="path28032"
       style="fill:#252525;fill-opacity:1;stroke:none;stroke-width:3.64465;stroke-linecap:round;stroke-linejoin:round;stroke-dashoffset:148.649;stroke-opacity:1;paint-order:fill markers stroke"
       d="m 88.035784,188.5571 c 2.71165,0 4.89479,2.81478 4.89479,6.31125 0,0.99184 -0.17581,1.92865 -0.48938,2.7621 a 11.405873,9.0352402 0 0 0 -3.36723,-0.40669 11.405873,9.0352402 0 0 0 -5.19245,0.99167 c -0.46929,-0.96914 -0.74052,-2.11566 -0.74052,-3.34708 0,-3.49647 2.18314,-6.31125 4.89479,-6.31125 z" />
  </g>
</svg>
